<?xml version="1.0" standalone="no"?>
<!DOCTYPE svg PUBLIC "-//W3C//DTD SVG 20010904//EN"
 "http://www.w3.org/TR/2001/REC-SVG-20010904/DTD/svg10.dtd">
<svg version="1.0" xmlns="http://www.w3.org/2000/svg"
 width="215.000000pt" height="215.000000pt" viewBox="0 0 215.000000 215.000000"
 preserveAspectRatio="xMidYMid meet">
<metadata>
Created by potrace 1.11, written by Peter Selinger 2001-2013
</metadata>
<g transform="translate(0.000000,215.000000) scale(0.100000,-0.100000)"
fill="#000000" stroke="none">
<path d="M526 2143 c-4 -4 -17 -7 -30 -8 -20 0 -125 -79 -240 -179 -11 -10
-54 -45 -93 -78 -40 -33 -70 -64 -67 -69 3 -5 -2 -19 -10 -31 -21 -30 -20 -70
3 -96 24 -28 75 -39 98 -21 15 13 15 12 5 -8 -42 -79 56 -165 117 -104 19 19
23 17 294 -262 151 -155 297 -305 325 -334 l50 -51 -24 -40 c-23 -38 -24 -39
-79 -37 l-55 1 -10 -35 c-14 -52 -14 -53 36 -86 l45 -30 4 -87 3 -86 -39 -28
c-43 -30 -48 -51 -22 -95 16 -28 20 -29 75 -24 33 3 58 1 58 -4 0 -5 22 -33
49 -63 l49 -53 -15 -44 c-8 -23 -12 -49 -9 -57 5 -13 64 -54 78 -54 4 0 24 14
43 32 l37 31 71 -18 c40 -10 77 -22 83 -27 6 -4 17 -29 24 -53 l13 -45 53 0
53 0 11 43 c6 23 12 46 14 51 1 5 38 21 82 36 l79 26 46 -33 45 -32 32 19 c42
26 47 40 28 85 -20 48 -20 57 2 81 11 11 34 42 53 69 l35 49 58 -1 c57 0 59 1
72 34 18 41 15 46 -40 78 l-43 25 -1 100 -1 100 46 31 c39 27 44 34 38 57 -11
46 -22 52 -84 46 -54 -5 -57 -4 -74 25 -18 31 -20 34 -74 92 l-32 34 18 51 18
50 -33 23 c-35 25 -38 24 -95 -21 -35 -28 -37 -29 -70 -14 -19 8 -60 20 -91
26 -57 11 -57 11 -73 61 l-17 50 -45 -3 c-46 -3 -46 -3 -61 -53 -14 -49 -25
-65 -49 -65 -6 0 -77 84 -158 188 -80 103 -152 194 -158 202 -7 8 -53 67 -102
130 -49 63 -92 117 -95 120 -3 3 -17 21 -30 40 -13 19 -30 41 -38 49 -8 8 -9
17 -4 20 18 12 31 49 26 77 -9 53 -66 80 -115 54 -23 -13 -25 -3 -3 21 26 29
21 79 -10 106 -26 22 -65 30 -80 16z"/>
</g>
</svg>
